<svg width="24" height="24" viewBox="0 0 24 24" fill="none" xmlns="http://www.w3.org/2000/svg">
<path d="M6.54648 13.2C5.64681 13.2 4.85511 12.708 4.44726 11.964L0.152857 4.176C-0.290979 3.384 0.284805 2.4 1.19647 2.4H18.9499L20.0775 0H24V2.4H21.6009L17.2825 11.508L18.9019 14.436C19.7776 16.044 18.626 18 16.8027 18H2.40802V15.6H16.8027L15.4832 13.2H6.54648ZM17.8103 4.8H3.23571L6.54648 10.8H14.9674L17.8103 4.8ZM16.8027 19.2C18.1222 19.2 19.1898 20.28 19.1898 21.6C19.1898 22.92 18.1222 24 16.8027 24C15.4832 24 14.4036 22.92 14.4036 21.6C14.4036 20.28 15.4832 19.2 16.8027 19.2ZM4.80713 19.2C6.12664 19.2 7.19424 20.28 7.19424 21.6C7.19424 22.92 6.12664 24 4.80713 24C3.48762 24 2.40802 22.92 2.40802 21.6C2.40802 20.28 3.48762 19.2 4.80713 19.2Z" fill="white"/>
</svg>
