<svg width="50" height="50" viewBox="0 0 50 50" fill="none" xmlns="http://www.w3.org/2000/svg">
<g clip-path="url(#clip0)">
<path d="M45.6586 15.5445L44.6136 10.3212L41.7038 11.4861C39.1507 12.5081 36.4278 13.4654 33.5919 14.3386C32.3393 10.9296 30.4468 7.54151 27.9534 4.24732L24.7387 0L22.6262 2.31546C19.259 6.00633 15.4591 9.59408 11.0095 13.2837C7.49777 16.1956 5.0115 20.2643 4.00866 24.7404C2.97485 29.3549 3.51881 34.049 5.58182 38.315L11.2327 49.9999H17.4134C22.8163 49.9999 27.5956 49.1714 31.6182 47.5372C35.4321 45.9877 38.5883 43.711 40.9992 40.7703C46.0304 34.6328 47.6851 25.6741 45.6586 15.5445ZM40.6711 15.0247C38.7437 18.9089 36.3328 22.7625 33.4728 26.5194C30.5329 30.3811 27.1175 34.1493 23.3212 37.7195C19.3615 41.4434 15.8008 44.178 13.6163 45.7504V36.4742C13.6163 32.4037 14.9506 28.5708 17.4751 25.39C19.9255 22.3024 23.3694 20.0853 27.1724 19.1472C28.715 18.7667 30.2313 18.3659 31.6977 17.9516L31.7002 17.9595L33.0395 17.5647C33.0522 17.561 33.065 17.5573 33.0777 17.5536V17.5535C35.7062 16.7783 38.2498 15.9299 40.6711 15.0247ZM6.86749 25.3809C7.72922 21.5344 9.8644 18.0391 12.8796 15.539C17.32 11.857 21.1342 8.26759 24.5283 4.57643L25.6174 6.01541C27.8913 9.01966 29.6208 12.092 30.7738 15.1681C29.3784 15.5608 27.9371 15.941 26.4706 16.3028C22.0414 17.3954 18.0317 19.9759 15.1802 23.5688C12.2404 27.273 10.6866 31.7356 10.6866 36.4743V42.1415L8.21926 37.0396C6.44707 33.3751 5.97968 29.3436 6.86749 25.3809ZM38.7333 38.913C36.6361 41.4714 33.8713 43.4598 30.5156 44.823C26.8447 46.3142 22.4365 47.0703 17.4134 47.0703H16.7739C18.9878 45.4066 21.9804 42.9981 25.2768 39.9022C29.1996 36.2181 32.7326 32.3242 35.7775 28.3286C38.5948 24.6319 40.9972 20.8388 42.9537 17.0074C44.541 25.8894 43.0543 33.6421 38.7333 38.913Z" fill="white"/>
</g>
<defs>
<clipPath id="clip0">
<rect width="50" height="50" fill="white"/>
</clipPath>
</defs>
</svg>
