<svg width="50" height="50" viewBox="0 0 50 50" fill="none" xmlns="http://www.w3.org/2000/svg">
<path d="M49.0643 24.8359C49.0643 22.0727 48.5839 19.3744 47.6372 16.8078L44.2726 1.9543L41.1031 5.12402C36.7698 1.81074 31.4352 0 25.9354 0C19.2577 0 12.9797 2.60049 8.25779 7.32227C3.53591 12.0442 0.935425 18.3223 0.935425 25C0.935425 31.6777 3.53581 37.9558 8.25779 42.6777C12.9797 47.3995 19.2577 50 25.9354 50H27.4003V47.9949C33.0178 47.6277 38.2487 45.2658 42.266 41.2485C46.65 36.8646 49.0643 31.0358 49.0643 24.8359ZM24.4706 47.0229C19.1265 46.675 14.1509 44.4276 10.3294 40.6062C6.16091 36.4375 3.86511 30.8951 3.86511 25C3.86511 19.1049 6.16082 13.5625 10.3294 9.39385C14.4979 5.22539 20.0402 2.92969 25.9354 2.92969C31.1932 2.92969 36.2786 4.80313 40.2549 8.20479L41.2846 9.08574L42.5887 7.78164L44.1008 14.4568L37.4256 12.9448L39.2006 11.1698L37.9356 10.1462C34.549 7.40527 30.2873 5.8958 25.9354 5.8958C15.4013 5.8958 6.83132 14.4659 6.83132 25C6.83132 35.0416 14.6178 43.2984 24.4706 44.0486V47.0229ZM27.4003 45.0587V41.1745H25.9354C17.0168 41.1745 9.76101 33.9187 9.76101 25C9.76101 16.0813 17.0168 8.82549 25.9354 8.82549C29.0714 8.82549 32.1523 9.75176 34.7679 11.4592L31.5983 14.6288L44.8132 17.6222C45.6892 19.9229 46.1345 22.3485 46.1345 24.836C46.1346 35.4986 37.8634 44.2658 27.4003 45.0587Z" fill="white"/>
<path d="M29.998 37.7379L32.6758 36.5485L33.8686 39.2337L31.1908 40.4231L29.998 37.7379Z" fill="white"/>
<path d="M34.8319 35.0039L36.7977 32.8301L38.9776 34.8013L37.0118 36.9752L34.8319 35.0039Z" fill="white"/>
<path d="M38.1068 30.5442L39.0209 27.7609L41.8119 28.6775L40.8978 31.4608L38.1068 30.5442Z" fill="white"/>
<path d="M39.0243 22.189L41.9474 21.8922L42.2433 24.8073L39.3202 25.104L39.0243 22.189Z" fill="white"/>
<path d="M22.7024 27.4688L19.0737 23.8401L17 25.9138L22.7024 31.6163L33.2449 21.0737L31.1712 19L22.7024 27.4688Z" fill="white"/>
</svg>
