<svg width="20" height="20" viewBox="0 0 20 20" fill="none" xmlns="http://www.w3.org/2000/svg">
<path fill-rule="evenodd" clip-rule="evenodd" d="M18.1366 14.0405C18.0935 15.016 17.9297 15.5425 17.7932 15.8937C17.4576 16.7638 16.767 17.4542 15.8968 17.7897C15.5456 17.9263 15.015 18.0901 14.0433 18.133C12.9896 18.1798 12.6737 18.1915 10.0087 18.1915C7.34338 18.1915 7.02352 18.1798 5.97374 18.133C4.99825 18.0901 4.47131 17.9263 4.12022 17.7897C3.68713 17.6298 3.29314 17.3763 2.97313 17.0445C2.64159 16.7207 2.38768 16.3305 2.22775 15.8976C2.09116 15.5466 1.92729 15.016 1.88454 14.0445C1.83755 12.9911 1.82603 12.6751 1.82603 10.0105C1.82603 7.3457 1.83755 7.02606 1.88454 5.97664C1.92729 5.00118 2.09116 4.47465 2.22775 4.12348C2.38768 3.69047 2.64159 3.29641 2.97722 2.97646C3.30087 2.64484 3.69107 2.39127 4.12417 2.23122C4.4754 2.09482 5.00613 1.93113 5.97768 1.88794C7.03125 1.84125 7.34732 1.82958 10.0123 1.82958C12.6815 1.82958 12.9975 1.84125 14.0471 1.88794C15.0227 1.93113 15.5495 2.09482 15.9006 2.23122C16.3337 2.39127 16.7278 2.64484 17.0477 2.97646C17.3795 3.30035 17.6332 3.69047 17.7932 4.12348C17.9297 4.47465 18.0935 5.00512 18.1366 5.97664C18.1833 7.02984 18.1951 7.3457 18.1951 10.0105C18.1951 12.6751 18.1833 12.9872 18.1366 14.0405ZM19.9354 5.88676C19.8887 4.82582 19.7169 4.0962 19.4709 3.46403C19.2173 2.79307 18.8272 2.19227 18.3161 1.69303C17.8164 1.18575 17.2116 0.791684 16.5482 0.54206C15.9123 0.296226 15.1866 0.124809 14.1252 0.0778246C13.0558 0.0272027 12.7164 0.0153809 10.0046 0.0153809C7.29259 0.0153809 6.95333 0.0272027 5.88794 0.073884C4.82649 0.120717 4.09703 0.292437 3.46489 0.53812C2.79364 0.791684 2.19273 1.18181 1.69308 1.69303C1.18585 2.19227 0.791866 2.79701 0.542193 3.46024C0.296311 4.0962 0.124708 4.82188 0.0778664 5.88282C0.027083 6.95179 0.0152588 7.29129 0.0152588 10.0027C0.0152588 12.714 0.027083 13.0535 0.073925 14.1186C0.120767 15.1798 0.292521 15.9093 0.538404 16.5413C0.791866 17.2124 1.18585 17.8132 1.69308 18.3126C2.19273 18.8196 2.79758 19.2138 3.4608 19.4633C4.09703 19.7091 4.82255 19.8807 5.88415 19.9275C6.94924 19.9745 7.2888 19.9862 10.0009 19.9862C12.7126 19.9862 13.052 19.9745 14.1174 19.9275C15.1787 19.8807 15.9083 19.7091 16.5405 19.4633C17.883 18.9445 18.9443 17.8832 19.4632 16.5413C19.7091 15.9055 19.8808 15.1798 19.9275 14.1186C19.9745 13.0535 19.986 12.714 19.986 10.0027C19.986 7.29129 19.9821 6.95179 19.9354 5.88676Z" fill="white"/>
<mask id="mask0" mask-type="alpha" maskUnits="userSpaceOnUse" x="0" y="0" width="20" height="20">
<path d="M0 0H20V20H0V0Z" fill="white"/>
</mask>
<g mask="url(#mask0)">
<path fill-rule="evenodd" clip-rule="evenodd" d="M10.0116 1.84345C7.39573 1.84345 7.04434 1.85452 5.97774 1.90196C5.00921 1.94485 4.48091 2.10732 4.12877 2.24434C3.69521 2.40439 3.31108 2.65401 2.98697 2.98593C2.65938 3.29845 2.40152 3.69297 2.24084 4.1278C2.10365 4.48049 1.94099 5.00914 1.89839 5.97656C1.85109 7.03553 1.84003 7.38534 1.84003 10.0098C1.84003 12.6376 1.85018 12.9587 1.89839 14.043C1.94114 15.0112 2.1038 15.5394 2.24068 15.8916C2.40077 16.3246 2.65044 16.7087 2.98273 17.0335C3.29668 17.3588 3.69142 17.6152 4.12467 17.7752C4.47728 17.9123 5.00603 18.075 5.97364 18.1175C7.03267 18.1649 7.38254 18.176 10.008 18.176C12.6367 18.176 12.9578 18.1657 14.0418 18.1175C15.0102 18.0749 15.5385 17.9123 15.8908 17.7754C16.7567 17.4414 17.4449 16.7534 17.7787 15.8877C17.9159 15.5352 18.0786 15.0067 18.1212 14.0391H18.1213C18.1673 13.0009 18.1797 12.7219 18.1797 10.0098C18.1797 7.29364 18.1673 7.01462 18.1213 5.97656C18.0784 5.00884 17.9158 4.48034 17.7789 4.12811C17.6187 3.69449 17.369 3.31043 17.0368 2.98624C16.7229 2.66083 16.3281 2.40439 15.8951 2.24434C15.5423 2.10732 15.0137 1.9447 14.0458 1.90196C12.9831 1.85452 12.6325 1.84345 10.0116 1.84345ZM10.008 18.2054C7.38178 18.2054 7.03176 18.1942 5.97228 18.1467C5.00042 18.1041 4.46879 17.9405 4.11421 17.8027C3.67702 17.6411 3.27849 17.3822 2.96196 17.054C2.62679 16.7266 2.37484 16.339 2.21325 15.9021C2.0756 15.548 1.91203 15.0167 1.86913 14.0444C1.82077 12.9595 1.81062 12.6382 1.81062 10.0098C1.81062 7.38488 1.82184 7.03477 1.86913 5.9752C1.91188 5.00353 2.07545 4.472 2.2134 4.1175C2.37545 3.67872 2.63589 3.28012 2.96636 2.96502C3.29319 2.63022 3.68081 2.37832 4.11846 2.21675C4.47243 2.07929 5.00376 1.91575 5.97637 1.87255C7.04358 1.82527 7.39512 1.8142 10.0116 1.8142C12.6331 1.8142 12.9839 1.82527 14.0471 1.87255C15.0193 1.9156 15.5509 2.07913 15.9054 2.2169C16.3424 2.37832 16.7411 2.63719 17.0576 2.96547C17.3926 3.29254 17.6446 3.68024 17.8063 4.1178C17.944 4.47185 18.1075 5.00323 18.1506 5.9752C18.1979 7.04144 18.2091 7.39261 18.2091 10.0098C18.2091 12.7226 18.1967 13.0018 18.1506 14.0404C18.1077 15.0123 17.9441 15.5438 17.8062 15.8981C17.4693 16.7716 16.775 17.4658 15.9014 17.8027C15.5471 17.9403 15.0157 18.1038 14.0432 18.1469C12.9586 18.1952 12.6373 18.2054 10.008 18.2054ZM10.004 0.0292516C7.32372 0.0292516 6.96703 0.0404672 5.88784 0.0879062C4.93114 0.130041 4.18531 0.272964 3.46949 0.551081C2.79521 0.805706 2.20097 1.19325 1.70299 1.7025C1.1997 2.19811 0.802832 2.80724 0.555282 3.46457C0.276807 4.18509 0.133856 4.93078 0.0917133 5.88275C0.0412331 6.94808 0.0292573 7.30228 0.0292573 10.0021C0.0292573 12.6827 0.0406267 13.0392 0.0879235 14.1171C0.130066 15.0741 0.273018 15.8198 0.551341 16.5353C0.803894 17.2037 1.19136 17.7978 1.70268 18.3013C2.199 18.805 2.8084 19.2016 3.4654 19.449C4.18607 19.7274 4.9319 19.8701 5.88405 19.9121C6.95839 19.9594 7.31417 19.9708 10.0002 19.9708C12.6858 19.9708 13.0416 19.9594 14.1161 19.9121C15.0733 19.87 15.8191 19.7271 16.5345 19.449C17.8701 18.9327 18.9324 17.8707 19.4488 16.5353C19.7273 15.8149 19.8703 15.0691 19.9122 14.117C19.9595 13.0423 19.9706 12.6864 19.9706 10.0021C19.9706 7.29122 19.9664 6.9452 19.92 5.88669C19.8778 4.92972 19.735 4.18388 19.4567 3.46866C19.2017 2.79421 18.8143 2.20023 18.3051 1.7028C17.8092 1.19931 17.1998 0.802523 16.5425 0.555173C15.8221 0.276753 15.0763 0.13383 14.1238 0.0916953C13.058 0.041225 12.7036 0.0292516 10.004 0.0292516ZM10.0002 20C7.31357 20 6.95763 19.989 5.88284 19.9414C4.9272 19.8994 4.17849 19.756 3.45494 19.4764C2.79415 19.2277 2.18096 18.8285 1.68207 18.3221C1.16771 17.8157 0.777971 17.218 0.523903 16.5458C0.244518 15.8274 0.10096 15.0786 0.0585146 14.1183C0.0112178 13.04 0 12.6834 0 10.0021C0 7.30167 0.0119758 6.94717 0.062456 5.88153C0.104599 4.92624 0.248156 4.17752 0.527692 3.45426C0.77691 2.79299 1.17605 2.18007 1.68222 1.68189C2.18293 1.16961 2.78081 0.779789 3.45903 0.523648C4.17788 0.244319 4.9266 0.100941 5.88663 0.0585031C6.96627 0.0112156 7.32312 0 10.004 0C12.7042 0 13.0588 0.0119734 14.1252 0.0624437C15.0808 0.104578 15.8296 0.248108 16.553 0.527589C17.2141 0.776455 17.8272 1.17567 18.3258 1.68204C18.8379 2.1822 19.2277 2.77981 19.484 3.45805C19.7635 4.17646 19.9071 4.92502 19.9494 5.88547C19.9958 6.94444 20 7.29076 20 10.0021C20 12.687 19.9888 13.0432 19.9415 14.1183C19.8995 15.0736 19.756 15.8222 19.4763 16.5459C18.9568 17.8891 17.8885 18.9571 16.5452 19.4764C15.8265 19.7557 15.0778 19.8991 14.1173 19.9414C13.0424 19.989 12.6865 20 10.0002 20Z" fill="white"/>
</g>
<path fill-rule="evenodd" clip-rule="evenodd" d="M10.004 13.1759C8.2511 13.1759 6.82947 11.7545 6.82947 10.0022C6.82947 8.24951 8.2511 6.828 10.004 6.828C11.7568 6.828 13.1783 8.24951 13.1783 10.0022C13.1783 11.7545 11.7568 13.1759 10.004 13.1759ZM10.004 5.10913C7.30213 5.10913 5.11011 7.30057 5.11011 10.0022C5.11011 12.7033 7.30213 14.8949 10.004 14.8949C12.7058 14.8949 14.8977 12.7033 14.8977 10.0022C14.8977 7.30057 12.7058 5.10913 10.004 5.10913Z" fill="white"/>
<path fill-rule="evenodd" clip-rule="evenodd" d="M10.0039 6.84276C8.26146 6.84276 6.84392 8.26002 6.84392 10.0021C6.84392 11.7438 8.26146 13.1611 10.0039 13.1611C11.7461 13.1611 13.1637 11.7438 13.1637 10.0021C13.1637 8.26002 11.7461 6.84276 10.0039 6.84276ZM10.0039 13.1905C8.24524 13.1905 6.81467 11.76 6.81467 10.0021C6.81467 8.2438 8.24524 6.81335 10.0039 6.81335C11.7623 6.81335 13.1929 8.2438 13.1929 10.0021C13.1929 11.76 11.7623 13.1905 10.0039 13.1905ZM10.0039 5.12373C7.31341 5.12373 5.12472 7.31214 5.12472 10.0021C5.12472 12.6919 7.31341 14.8801 10.0039 14.8801C12.6942 14.8801 14.8829 12.6919 14.8829 10.0021C14.8829 7.31214 12.6942 5.12373 10.0039 5.12373ZM10.0039 14.9095C7.29734 14.9095 5.09546 12.7079 5.09546 10.0021C5.09546 7.29593 7.29734 5.09448 10.0039 5.09448C12.7104 5.09448 14.9123 7.29593 14.9123 10.0021C14.9123 12.7079 12.7104 14.9095 10.0039 14.9095Z" fill="white"/>
<path fill-rule="evenodd" clip-rule="evenodd" d="M15.3378 3.89673C14.9115 3.89673 14.5659 4.24214 14.5659 4.66848C14.5659 5.09483 14.9115 5.44039 15.3378 5.44039C15.7643 5.44039 16.1099 5.09483 16.1099 4.66848C16.1099 4.24214 15.7643 3.89673 15.3378 3.89673Z" fill="white"/>
<path fill-rule="evenodd" clip-rule="evenodd" d="M15.3376 3.91158C14.9202 3.91158 14.5804 4.25123 14.5804 4.66863C14.5804 5.08618 14.9202 5.42584 15.3376 5.42584C15.7553 5.42584 16.0951 5.08618 16.0951 4.66863C16.0951 4.25123 15.7553 3.91158 15.3376 3.91158ZM15.3376 5.45524C14.9039 5.45524 14.551 5.10225 14.551 4.66863C14.551 4.23501 14.9039 3.88232 15.3376 3.88232C15.7715 3.88232 16.1244 4.23501 16.1244 4.66863C16.1244 5.10225 15.7715 5.45524 15.3376 5.45524Z" fill="white"/>
</svg>
