<svg width="50" height="50" viewBox="0 0 50 50" fill="none" xmlns="http://www.w3.org/2000/svg">
<g clip-path="url(#clip0)">
<path d="M39.0149 39.6762H38.3077V35.2769C38.3077 26.1101 30.5061 21.7854 26.3148 19.462C26.0485 19.3145 25.8853 19.0367 25.889 18.7366C25.8895 18.6982 25.8897 18.6598 25.8897 18.6214C25.8897 16.888 25.4107 15.1835 24.5231 13.7068C24.9589 13.2395 25.2463 12.8164 25.7635 11.7471C28.0299 7.06128 26.2387 1.64343 26.1614 1.41514L25.6818 0L24.2748 0.502642C24.0479 0.58377 18.6884 2.54299 16.4221 7.22873C15.9903 8.12134 15.8566 8.61379 15.801 9.10173C13.4787 9.23342 11.0681 10.193 9.17089 11.744C7.01463 13.5066 5.82524 15.7732 5.82191 18.1263C5.81691 21.6204 7.94339 23.1596 9.49609 24.2835C9.95013 24.6121 10.379 24.9225 10.7032 25.2394C11.2966 25.819 11.4698 26.7329 11.1342 27.5136C10.3773 29.2754 9.99344 31.1479 9.99344 33.079C9.99344 35.8387 10.5186 38.1249 11.6216 40.0764C9.42741 40.6195 7.79612 42.6052 7.79612 44.9648C7.79612 47.7411 10.055 50 12.8314 50H39.0149C41.8612 50 44.1769 47.6844 44.1769 44.8381C44.1769 41.9917 41.8612 39.6762 39.0149 39.6762ZM12.8313 47.0606C11.6757 47.0606 10.7354 46.1204 10.7354 44.9648C10.7354 43.8091 11.6757 42.869 12.8313 42.869H20.533L20.2436 41.1546C20.1688 40.7124 20.1359 40.2602 20.1455 39.8106C20.1697 38.6758 20.4575 37.595 21.0007 36.5983L18.4198 35.1917C17.6601 36.5855 17.2408 38.161 17.2068 39.748C17.2055 39.8084 17.2047 39.869 17.2046 39.9295H15.0843C13.6019 38.1558 12.9329 36.0037 12.9329 33.079C12.9329 31.5491 13.2364 30.0672 13.835 28.6741C14.6469 26.7848 14.2139 24.5595 12.7575 23.1367C12.2781 22.6684 11.74 22.279 11.2198 21.9023C9.84471 20.907 8.75869 20.1208 8.76143 18.1304C8.76604 14.8849 12.6783 12.1874 16.0407 12.0325C16.3446 12.0188 16.6618 12.0269 16.983 12.0571L18.3204 12.1833L18.5659 10.8625C18.6669 10.3192 18.6873 9.95622 18.7023 9.69109C18.7219 9.34041 18.7292 9.20931 19.0682 8.50856C20.1558 6.2599 22.2984 4.77794 23.756 3.98145C24.0367 5.6194 24.205 8.21853 23.1174 10.467C22.6535 11.4259 22.5585 11.5214 22.1588 11.9228C21.9983 12.084 21.7987 12.2844 21.5421 12.566L20.6923 13.4986L21.4855 14.4799C22.4437 15.6654 22.9502 17.0975 22.9502 18.6212L22.9497 18.7015C22.9331 20.0838 23.6765 21.3603 24.8897 22.0327C28.8088 24.2053 35.3683 27.8414 35.3683 35.2767V45.4956C35.3683 46.3584 34.6664 47.0604 33.8036 47.0604H12.8313V47.0606ZM39.0149 47.0606H38.027C38.2083 46.5729 38.3077 46.0458 38.3077 45.4958V42.6156H39.0149C40.2404 42.6156 41.2375 43.6126 41.2375 44.8381C41.2375 46.0635 40.2404 47.0606 39.0149 47.0606Z" fill="white"/>
<path d="M14.8798 15.5933C14.111 15.5933 13.3745 16.2692 13.4101 17.063C13.4457 17.8593 14.0558 18.5327 14.8798 18.5327C15.6485 18.5327 16.385 17.8567 16.3495 17.063C16.3138 16.2666 15.7037 15.5933 14.8798 15.5933Z" fill="white"/>
</g>
<defs>
<clipPath id="clip0">
<rect width="50" height="50" fill="white"/>
</clipPath>
</defs>
</svg>
