<svg width="50" height="50" viewBox="0 0 50 50" fill="none" xmlns="http://www.w3.org/2000/svg">
<g clip-path="url(#clip0)">
<path d="M49.2198 24.063C49.1298 23.9551 47.2347 21.701 44.296 19.8314C45.8928 16.7731 46.4083 13.9053 46.4434 13.7014L46.6506 12.4999L45.5065 12.0786C45.3123 12.0071 42.571 11.0197 39.1241 10.8734C38.9743 7.39362 37.9699 4.6253 37.9212 4.49342L37.4999 3.34925L36.2984 3.55639C36.1598 3.5803 33.2602 4.09455 30.1718 5.70484C28.3216 2.79292 26.0958 0.912525 25.9368 0.780156L25 0L24.0631 0.780156C23.9041 0.912525 21.6783 2.79292 19.8282 5.70484C16.7398 4.09465 13.8402 3.5803 13.7016 3.55649L12.5001 3.34934L12.0788 4.49351C12.0301 4.62539 11.0257 7.39372 10.8759 10.8735C7.42896 11.0198 4.68767 12.0072 4.49351 12.0787L3.34944 12.5L3.55658 13.7015C3.59173 13.9055 4.10705 16.7734 5.70367 19.8317C2.7652 21.7013 0.870159 23.9552 0.780156 24.0631L0 25L0.780156 25.9371C0.870159 26.045 2.7653 28.2991 5.70397 30.1687C4.10724 33.227 3.59173 36.0948 3.55658 36.2986L3.34934 37.5002L4.49351 37.9215C4.68767 37.993 7.42896 38.9805 10.8759 39.1268C11.0257 42.6065 12.0301 45.3748 12.0787 45.5067L12.5 46.6509L13.7015 46.4437C13.8401 46.4198 16.7397 45.9055 19.8281 44.2953C21.6783 47.2072 23.9041 49.0876 24.0631 49.2199L25 50.0001L25.937 49.2199C26.096 49.0876 28.3218 47.2072 30.1719 44.2953C33.2603 45.9054 36.1599 46.4198 36.2985 46.4436L37.5 46.6508L37.9213 45.5066C37.97 45.3747 38.9744 42.6064 39.1241 39.1267C42.571 38.9804 45.3123 37.993 45.5065 37.9214L46.6506 37.5001L46.4434 36.2986C46.4083 36.0946 45.893 33.2267 44.2963 30.1684C47.2348 28.2988 49.1298 26.0449 49.2198 25.937L50 25L49.2198 24.063ZM37.3724 23.3355C37.2531 23.4044 37.1286 23.4709 37.002 23.5358H30.672C30.5404 23.0294 30.3412 22.5371 30.0724 22.0715C29.8037 21.606 29.477 21.1873 29.1042 20.8202L32.2691 15.3383C32.3887 15.261 32.5087 15.1863 32.6282 15.1173L32.628 15.1174C36.2469 13.0281 41.0358 13.8816 43.2609 14.4596C42.6531 16.6743 41.0063 21.2375 37.3724 23.3355ZM22.4639 26.4643C22.0728 25.7869 21.9688 24.9977 22.1713 24.2421C22.3738 23.4865 22.8583 22.855 23.5358 22.4639C23.9871 22.2033 24.4879 22.0703 24.9954 22.0703C25.2497 22.0703 25.5058 22.1037 25.758 22.1713C26.5136 22.3737 27.1451 22.8583 27.5362 23.5358C27.9273 24.2132 28.0313 25.0024 27.8288 25.758C27.6263 26.5136 27.1418 27.1451 26.4643 27.5362C25.7868 27.9274 24.9977 28.0314 24.2421 27.8288C23.4865 27.6263 22.8549 27.1417 22.4639 26.4643ZM35.544 6.74027C35.8055 7.74153 36.1215 9.26426 36.197 10.9756C34.9877 11.1196 33.7562 11.4047 32.5674 11.8929C32.3958 10.6195 32.0271 9.41078 31.5473 8.2915C33.063 7.50491 34.5438 7.01594 35.544 6.74027ZM25.0021 3.91542C26.6163 5.54905 29.7447 9.25684 29.7447 13.4526C29.7447 13.5906 29.74 13.7317 29.7329 13.8739L26.5669 19.3575C26.5497 19.3527 26.533 19.3471 26.5158 19.3425C25.4884 19.0673 24.43 19.076 23.4317 19.3551L20.2672 13.8738C20.26 13.7317 20.2554 13.5906 20.2554 13.4526C20.2554 9.27402 23.3892 5.55354 25.0021 3.91542ZM18.4528 8.2915C17.9729 9.41069 17.6042 10.6195 17.4327 11.8929C16.2441 11.4048 15.0129 11.1198 13.8038 10.9757C13.8803 9.2708 14.1969 7.74485 14.4582 6.74086C15.4586 7.01662 16.9382 7.50549 18.4528 8.2915ZM17.3719 15.1172C17.4914 15.1863 17.6114 15.2609 17.7311 15.3383L20.8955 20.8194C20.1546 21.5443 19.6178 22.4565 19.3425 23.4841C19.338 23.5012 19.3344 23.5185 19.3301 23.5357H12.9981C12.8713 23.4708 12.7468 23.4043 12.6274 23.3353C9.01026 21.247 7.35487 16.6757 6.74203 14.4587C8.96975 13.8807 13.7555 13.0294 17.3719 15.1172ZM3.91611 25C4.65517 24.2715 5.81828 23.2346 7.25608 22.3161C7.98547 23.2912 8.84802 24.2148 9.86519 25C8.84812 25.7854 7.98567 26.709 7.25637 27.6842C5.81818 26.7655 4.65497 25.7283 3.91611 25ZM12.6276 26.6645C12.7468 26.5956 12.8713 26.5291 12.9981 26.4642H19.3281C19.4597 26.9706 19.6589 27.4629 19.9277 27.9285C20.1964 28.394 20.5231 28.8127 20.8959 29.1798L17.731 34.6617C17.6114 34.739 17.4915 34.8136 17.372 34.8826C13.7546 36.971 8.96838 36.1189 6.74203 35.5411C7.35526 33.3231 9.01075 28.7527 12.6276 26.6645ZM14.456 43.2597C14.1945 42.2585 13.8785 40.7357 13.803 39.0244C15.0123 38.8803 16.2438 38.5953 17.4327 38.107C17.6043 39.3804 17.9729 40.5892 18.4528 41.7085C16.937 42.4951 15.4562 42.9841 14.456 43.2597ZM24.998 46.0846C23.3838 44.451 20.2554 40.7432 20.2555 36.5471C20.2555 36.4092 20.2601 36.2683 20.2673 36.1261L23.4332 30.6425C23.4504 30.6473 23.4671 30.6529 23.4842 30.6575C23.9888 30.7927 24.5008 30.8595 25.0096 30.8595C25.5368 30.8595 26.0604 30.787 26.5685 30.645L29.733 36.1262C29.7401 36.2684 29.7448 36.4094 29.7448 36.5474C29.7447 40.726 26.6108 44.4465 24.998 46.0846ZM31.5472 41.7085C32.0271 40.5893 32.3958 39.3805 32.5673 38.1071C33.756 38.5952 34.9872 38.8803 36.1963 39.0243C36.1196 40.7292 35.8031 42.2551 35.5418 43.2591C34.5414 42.9834 33.0618 42.4945 31.5472 41.7085ZM32.6281 34.8828C32.5086 34.8137 32.3886 34.7391 32.2689 34.6617L29.1045 29.1807C29.8454 28.4558 30.3822 27.5435 30.6575 26.5159C30.662 26.4988 30.6656 26.4815 30.6699 26.4643H37.0019C37.1286 26.5292 37.2531 26.5957 37.3725 26.6647C40.9896 28.753 42.645 33.3243 43.2579 35.5413C41.0303 36.1193 36.2445 36.9706 32.6281 34.8828ZM42.7438 27.684C42.0144 26.7089 41.1519 25.7853 40.1347 25C41.1518 24.2147 42.0142 23.2911 42.7436 22.3159C44.1818 23.2346 45.345 24.2717 46.0839 25C45.3448 25.7285 44.1817 26.7655 42.7438 27.684Z" fill="white"/>
</g>
<defs>
<clipPath id="clip0">
<rect width="50" height="50" fill="white"/>
</clipPath>
</defs>
</svg>
