<svg width="45" height="28" viewBox="0 0 45 28" fill="none" xmlns="http://www.w3.org/2000/svg">
<path d="M45 14.8909L39.1908 4.77884H30.1957V0H0V25.2462H5.48552C6.04055 26.8435 7.62636 28 9.49219 28C11.358 28 12.9438 26.8435 13.4989 25.2462H32.2728C32.8279 26.8435 34.4137 28 36.2795 28C38.1453 28 39.7311 26.8435 40.2862 25.2462H45V14.8909ZM2.63672 11.3714H16.8556C17.5825 11.3714 18.1739 11.9329 18.1739 12.6231C18.1739 13.3133 17.5825 13.8749 16.8556 13.8749H2.63672V11.3714ZM9.49219 25.4966C8.61987 25.4966 7.91016 24.8227 7.91016 23.9945C7.91016 23.1663 8.61987 22.4924 9.49219 22.4924C10.3645 22.4924 11.0742 23.1663 11.0742 23.9945C11.0742 24.8227 10.3645 25.4966 9.49219 25.4966ZM27.559 22.7427H13.4989C12.9438 21.1454 11.358 19.9889 9.49219 19.9889C7.62636 19.9889 6.04055 21.1454 5.48552 22.7427H2.63672V16.3784H16.8556C19.0364 16.3784 20.8107 14.6938 20.8107 12.6231C20.8107 10.5525 19.0364 8.86788 16.8556 8.86788H2.63672V2.50349H27.559V22.7427ZM36.2794 25.4966C35.4071 25.4966 34.6974 24.8227 34.6974 23.9945C34.6974 23.1663 35.4071 22.4924 36.2794 22.4924C37.1517 22.4924 37.8614 23.1663 37.8614 23.9945C37.8614 24.8227 37.1517 25.4966 36.2794 25.4966ZM42.3633 22.7427H40.2861C39.731 21.1454 38.1452 19.9889 36.2794 19.9889C34.4136 19.9889 32.8278 21.1454 32.2727 22.7427H30.1957V7.28233H37.6256L42.3633 15.5293V22.7427Z" fill="white"/>
</svg>
