<svg width="50" height="50" viewBox="0 0 50 50" fill="none" xmlns="http://www.w3.org/2000/svg">
<path d="M42.6575 7.34258C37.9226 2.60762 31.6517 0 25 0C18.3483 0 12.0774 2.60762 7.34258 7.34258C2.60762 12.0774 0 18.3483 0 25C0 31.6517 2.60762 37.9226 7.34258 42.6574C12.0774 47.3924 18.3483 50 25 50C31.6517 50 37.9226 47.3924 42.6575 42.6574C47.3924 37.9226 50 31.6517 50 25C50 18.3483 47.3924 12.0774 42.6575 7.34258ZM25 47.0703C12.8304 47.0703 2.92969 37.1696 2.92969 25C2.92969 12.8304 12.8304 2.92969 25 2.92969C37.1696 2.92969 47.0703 12.8304 47.0703 25C47.0703 37.1696 37.1696 47.0703 25 47.0703Z" fill="white"/>
<path d="M22.7024 27.4688L19.0737 23.8401L17 25.9138L22.7024 31.6163L33.2449 21.0737L31.1712 19L22.7024 27.4688Z" fill="white"/>
</svg>
