<svg width="34" height="34" viewBox="0 0 34 34" fill="none" xmlns="http://www.w3.org/2000/svg">
<path d="M23.2664 8.20123C22.6137 7.73585 21.9115 7.34421 21.1725 7.03333L20.3374 9.02557C20.9278 9.2744 21.489 9.58744 22.0109 9.95903L23.2664 8.20123Z" fill="black"/>
<path d="M26.4417 11.7461C26.0516 11.0484 25.5852 10.3961 25.0512 9.80139L23.4414 11.2426C23.8688 11.7206 24.2423 12.2442 24.5553 12.8038L26.4417 11.7461Z" fill="black"/>
<path d="M25.2953 14.5626C26.6342 19.137 24.0114 23.9307 19.437 25.2697C14.8627 26.6086 10.0689 23.9858 8.73 19.4114C7.39105 14.837 10.0138 10.0433 14.5882 8.70438C15.8591 8.33239 17.1985 8.25784 18.5028 8.48648L18.8756 6.35702C18.2561 6.2502 17.6287 6.19632 17 6.19604C11.0397 6.20374 6.21424 11.0417 6.22193 17.0021C6.22963 22.9624 11.0676 27.7879 17.028 27.7802C22.9882 27.7725 27.8137 22.9345 27.806 16.9741C27.8047 15.9532 27.6585 14.9375 27.3718 13.9576L25.2953 14.5626Z" fill="black"/>
<path d="M34 17L31.232 13.1862L31.7236 8.49946L27.4193 6.58068L25.5005 2.27639L20.8138 2.76797L17 0L13.1862 2.76797L8.49946 2.27639L6.58068 6.58068L2.27639 8.49946L2.76797 13.1862L0 17L2.76797 20.8138L2.27639 25.5005L6.58068 27.4193L8.49946 31.7236L13.1862 31.232L17 34L20.8138 31.232L25.5005 31.7236L27.4193 27.4193L31.7236 25.5005L31.232 20.8138L34 17ZM25.7814 25.7814L24.1609 29.4105L20.2153 28.9924L17 31.3314L13.7847 28.9924L9.83483 29.4062L8.21424 25.7771L4.58519 24.1565L5.00763 20.2153L2.66857 17L5.00763 13.7847L4.58951 9.83483L8.21856 8.21424L9.83915 4.58519L13.7891 4.99898L17 2.66857L20.2153 5.00763L24.1652 4.59384L25.7858 8.22288L29.4148 9.84347L28.9924 13.7847L31.3314 17L28.9924 20.2153L29.4062 24.1652L25.7814 25.7814Z" fill="black"/>
<path d="M12.3618 16.2361L10.8341 17.7637L14.8391 21.7688L22.0853 14.5226L20.5577 12.9949L14.8391 18.7134L12.3618 16.2361Z" fill="black"/>
</svg>
