<svg width="88" height="40" viewBox="0 0 88 40" fill="none" xmlns="http://www.w3.org/2000/svg">
<path d="M58.2563 17.5196L58.2323 4.75588L51.9006 15.3923H50.7498L44.418 4.83217V17.5196H42.0161V0H44.0693L51.3775 12.3126L58.5854 0H60.6386L60.6626 17.5174L58.2563 17.5196Z" fill="white"/>
<path d="M79.6251 15.3422V17.5196H66.9115V0H79.2742V2.17742H69.4137V7.55885H78.1974V9.68614H69.4137V15.3422H79.6251Z" fill="white"/>
<path d="M84.6796 0H87.1817V17.5174H84.6796V0Z" fill="white"/>
<path d="M0 30.9633C0 27.9119 2.18614 25.7476 5.13732 25.7476C8.09068 25.7476 10.2746 27.9141 10.2746 30.9633C10.2746 34.0148 8.0885 36.1813 5.13732 36.1813C2.18396 36.1813 0 34.0148 0 30.9633ZM9.27202 30.9633C9.27202 28.3849 7.5 26.6325 5.13732 26.6325C2.77463 26.6325 1.00262 28.3849 1.00262 30.9633C1.00262 33.5418 2.77463 35.2942 5.13732 35.2942C7.5 35.2964 9.27202 33.544 9.27202 30.9633Z" fill="white"/>
<path d="M18.9756 25.7476V26.7109C18.8972 26.7109 18.8187 26.6913 18.7402 26.6913C16.456 26.6913 15.0981 28.2061 15.0981 30.7476V36.1028H14.1151V25.826H15.0589V28.071C15.6866 26.5736 17.0467 25.7476 18.9756 25.7476Z" fill="white"/>
<path d="M31.6325 25.826V34.9999C31.6325 38.4459 29.9585 39.9999 26.6521 39.9999C24.782 39.9999 22.9904 39.4093 21.9463 38.3652L22.4782 37.6176C23.5026 38.5636 24.9782 39.1128 26.6325 39.1128C29.3679 39.1128 30.6495 37.853 30.6495 35.1155V33.3827C29.8038 34.8779 28.2279 35.7258 26.3775 35.7258C23.4633 35.7258 21.2598 33.6595 21.2598 30.7257C21.2598 27.792 23.4655 25.7454 26.3775 25.7454C28.2672 25.7454 29.8626 26.6107 30.6887 28.1473V25.8238H31.6325V25.826ZM30.6691 30.7279C30.6691 28.3064 28.8971 26.6325 26.4559 26.6325C24.0344 26.6325 22.2624 28.3064 22.2624 30.7279C22.2624 33.1495 24.0344 34.843 26.4559 34.843C28.8971 34.843 30.6691 33.1495 30.6691 30.7279Z" fill="white"/>
<path d="M44.0149 29.5858V36.1028H43.0689V34.272C42.4194 35.4533 41.1596 36.1813 39.368 36.1813C37.0641 36.1813 35.667 35 35.667 33.2476C35.667 31.6935 36.6522 30.3727 39.5053 30.3727H43.0297V29.5466C43.0297 27.6373 41.9878 26.6129 39.9782 26.6129C38.5615 26.6129 37.2821 27.1447 36.4342 27.9119L35.9416 27.2035C36.966 26.299 38.4612 25.7476 40.0567 25.7476C42.5981 25.7476 44.0149 27.0466 44.0149 29.5858ZM43.0297 33.071V31.1421H39.5249C37.3998 31.1421 36.65 32.027 36.65 33.2083C36.65 34.5466 37.694 35.3748 39.5053 35.3748C41.2381 35.3748 42.439 34.5466 43.0297 33.071Z" fill="white"/>
<path d="M58.0493 30.098V36.1028H57.0641V30.1765C57.0641 27.853 55.8239 26.6325 53.738 26.6325C51.3165 26.6325 49.8387 28.1865 49.8387 30.6299V36.1028H48.8535V25.826H49.7995V28.0514C50.4882 26.615 51.9246 25.7476 53.8753 25.7476C56.3775 25.7476 58.0493 27.2231 58.0493 30.098Z" fill="white"/>
<path d="M63.8753 25.8262H62.8901V36.103H63.8753V25.8262Z" fill="white"/>
<path d="M67.694 30.9633C67.694 27.8923 69.8801 25.7476 72.8923 25.7476C74.527 25.7476 75.9437 26.3775 76.7894 27.6373L76.0614 28.1691C75.3138 27.1251 74.1717 26.6347 72.8923 26.6347C70.4708 26.6347 68.6988 28.3674 68.6988 30.9655C68.6988 33.5636 70.4708 35.2964 72.8923 35.2964C74.1717 35.2964 75.3138 34.8038 76.0614 33.7598L76.7894 34.2916C75.9437 35.5318 74.5248 36.1813 72.8923 36.1813C69.8779 36.1813 67.694 34.0148 67.694 30.9633Z" fill="white"/>
<path d="M79.0127 34.8626L79.4661 34.0758C80.2529 34.7449 81.6522 35.316 83.167 35.316C85.3314 35.316 86.1988 34.5488 86.1988 33.3871C86.1988 30.3945 79.3876 32.6002 79.3876 28.5636C79.3876 27.0095 80.6866 25.7476 83.2847 25.7476C84.5838 25.7476 86.0027 26.1421 86.8091 26.7524L86.3558 27.5392C85.4905 26.9093 84.368 26.615 83.2651 26.615C81.2577 26.615 80.3706 27.4411 80.3706 28.544C80.3706 31.6347 87.1818 29.4485 87.1818 33.3674C87.1818 35.0414 85.7433 36.1835 83.1256 36.1835C81.4342 36.1813 79.8191 35.6102 79.0127 34.8626Z" fill="white"/>
<path d="M29.0606 10.0108L32.0379 11.687L31.262 13.0623L28.2345 11.2859L28.2585 14.6883H26.7567L26.7807 11.2859L23.7532 13.0623L22.9773 11.687L25.9808 10.0108L22.9773 8.35871L23.7532 6.95723L26.7807 8.7336L26.7567 5.35522H28.2585L28.2345 8.7336L31.262 6.95723L32.0379 8.35871L29.0606 10.0108Z" fill="white"/>
</svg>
