<svg id="Layer_1" data-name="Layer 1" xmlns="http://www.w3.org/2000/svg" viewBox="0 0 1440 39"><defs><style>.cls-1{fill-rule:evenodd;}</style></defs><path class="cls-1" d="M1440,17.69V33h0v6H0V15.23q5.69-.68,11.34-1.42c.58-.08,1.16-.18,1.74-.28a25.63,25.63,0,0,1,2.73-.39c2-.14,4.09-.19,6.14-.24a61.79,61.79,0,0,0,12.89-1.21A76.06,76.06,0,0,1,54.38,9.54c1.44,0,2.89,0,4.33-.12a41.22,41.22,0,0,1,7.46.12,57.19,57.19,0,0,0,22.31-1,3.31,3.31,0,0,1,2.24,0c3,2,6.25,1.59,9.45,1.22a22.87,22.87,0,0,1,5.47-.2,141,141,0,0,0,14.67,1A23.75,23.75,0,0,0,127,9.45a32.88,32.88,0,0,1,14.56-.81,26,26,0,0,0,7.32.13l.29,0c6.65-.77,13.26-1.53,19.93-.13a24.84,24.84,0,0,0,5,.33h.6a301,301,0,0,1,50.78,4.25,72.21,72.21,0,0,0,7.23.69c1.9.12,3.8.24,5.69.48a229.41,229.41,0,0,0,33.87,1.37c5.25-.12,10.5,0,15.74.21,2.8.08,5.59.17,8.39.22,1.06,0,2.13,0,3.19.08a69.39,69.39,0,0,0,9.68-.16c5.18-.61,10.23.07,15.27.75,2.42.32,4.85.65,7.29.83a41.26,41.26,0,0,1,8.4,1.84l2,.58c3.42.95,6.5.74,9.48-1.39a6.83,6.83,0,0,1,3.65-.86c2.24,0,4.48,0,6.71,0,3.44,0,6.87.05,10.28-.13,6.77-.34,13.52-.79,20.28-1.24,4.91-.32,9.83-.65,14.74-.94,1.39-.08,2.79,0,4.19,0a41.85,41.85,0,0,0,4.19,0c3.72-.23,7.44-.5,11.16-.77,5.34-.39,10.67-.78,16-1A38.1,38.1,0,0,0,456.61,11c2.45-1,5.47-.84,8.46-.64,1,.08,2.08.15,3.09.17.48,0,1,0,1.47-.09,1.84-.16,3.72-.32,5,2,.27.5,2.46.2,3.68-.07a21.09,21.09,0,0,1,10.56.71c.72.2,1.44.44,2.17.68,3.43,1.14,7,2.32,10.53-.31a1.55,1.55,0,0,1,1.36.14c.74,2.14,2.2,1.76,3.53,1.42a5.54,5.54,0,0,1,1.3-.24c2.8,0,5.58-.27,8.37-.5,1.87-.15,3.74-.29,5.62-.39,3.3-.17,6.61-.31,9.91-.45,4.43-.19,8.87-.37,13.29-.64a36.53,36.53,0,0,0,7.2-1.24c3.6-1,7.08-.4,10.56.42C568,13.16,571,13,576.42,11l-3.6-1.42c1-1.86,2.44-1.77,3.77-1.69.27,0,.53,0,.79,0,3.24,0,6.48,0,9.72,0,5.82,0,11.63,0,17.43-.18,4.8-.15,9.59-.52,14.38-.89,2.72-.21,5.44-.42,8.15-.59L630.41,6c4.36-.29,8.73-.58,13.08-.45,4,.15,7.15-1,10.69-2.83,5.17-2.62,11.1-3,17.08-2.59s12.12.74,18.18,1c5.78.29,11.57.58,17.34,1,9,.64,18.05,1.48,27.08,2.32l6.75.63c3.29.3,6.57.63,9.85,1,4.23.43,8.47.87,12.71,1.23l2.11.17c9.44.81,18.88,1.61,28.33,2.13s18.82.95,28.23,1.38q10.81.48,21.62,1c7.74.4,15.48.87,23.22,1.35l12.78.77c4.69.28,9.38.53,14.07.78,7.77.41,15.53.83,23.28,1.38,18.67,1.33,37.33,2.68,56,4.39,11.12,1,22.21,2.21,33.31,3.4,8.44.91,16.88,1.81,25.32,2.64,9.13.9,18.29,1.57,27.45,2.24l4.18.3,6.66.49c12.85.95,25.69,1.91,38.55,2.66q6.13.36,12.28.58H1148c14.2-.24,28.41-.59,42.6-1.18,17-.71,33.94-1.74,50.9-2.76l10.17-.61c12-.72,24.12-1.45,36.12-2.5,9.15-.8,18.27-1.7,27.41-2.59s18.13-1.78,27.22-2.57c6.86-.6,13.74-.93,20.63-1.27l6.53-.32c3.74-.19,7.48-.4,11.23-.61,10.41-.57,20.82-1.15,31.24-1.37C1421.35,17,1430.68,17.28,1440,17.69Z"/></svg>